<svg xmlns="http://www.w3.org/2000/svg" viewBox="0 0 520 320" fill="none">
  <!-- Tangled knot that unravels into a line -->
  <path
    d="M 60 160
       C 60 130, 90 110, 110 130
       C 130 150, 120 185, 100 190
       C 75 196, 55 175, 65 150
       C 75 125, 105 115, 125 135
       C 145 155, 140 190, 120 200
       C 95 212, 68 195, 72 170
       C 76 145, 108 130, 128 148
       C 148 166, 142 198, 122 208
       C 100 220, 72 205, 68 180
       C 64 155, 92 138, 115 148
       C 140 160, 145 193, 132 210
       C 152 200, 170 185, 175 165
       C 182 148, 220 148, 260 155
       C 300 162, 340 158, 390 158
       C 440 158, 490 158, 510 158"
    stroke="url(#logoGradient)"
    stroke-width="5.5"
    stroke-linecap="round"
    stroke-linejoin="round"
    fill="none"
  />
  <defs>
    <linearGradient id="logoGradient" x1="60" y1="160" x2="510" y2="158" gradientUnits="userSpaceOnUse">
      <stop offset="0%" stop-color="#7ECEC4"/>
      <stop offset="55%" stop-color="#7ECEC4"/>
      <stop offset="100%" stop-color="#6B8FA3"/>
    </linearGradient>
  </defs>
  <!-- Pausa text -->
  <text x="260" y="255" text-anchor="middle" font-family="-apple-system, BlinkMacSystemFont, 'Segoe UI', sans-serif" font-size="52" font-weight="400" fill="#5C7A8A" letter-spacing="-1">Pausa</text>
</svg>
